<svg id="Capa_1" data-name="Capa 1" xmlns="http://www.w3.org/2000/svg" viewBox="0 0 75.02 59.87"><defs><style>.cls-1{fill:#fff;}.cls-2{fill:#486955;}</style></defs><path class="cls-1" d="M165,118.4a24.82,24.82,0,0,1-3.65,12.15c-1.06,1.67-1.23,2.69.72,4,6.66,4.48,10.47,10.92,12.31,18.66.77,3.23,1.85,6.39,2.91,9.53.65,1.92,1,3.8-1.3,4.58-2.58.88-3.76-1.1-4.15-3.1-1-5.29-3.58-10-5.35-15a17.4,17.4,0,0,0-3.59-6.48c-4.68-4.82-6-4.81-10.62,0-8.09,8.42-18.21,7.65-27.88,4.72-5.46-1.65-7.54-.23-9.47,4.18-1.88,4.26-3.93,8.46-4.68,13.08-.34,2.14-.87,3.64-3.3,3.23s-2.19-2.46-1.78-4c1.67-6,2.35-12.5,6-17.82,1.69-2.43,1.92-3.74-.49-6.09-5.9-5.73-8.1-13.16-8-21.32,0-1.56.13-3.16,2-3.46,2.08-.34,2.88.94,3.29,2.84,1.34,6.2,4.75,11.27,9,15.79,1.24,1.31,2.4,2.68,4.63,1.18,8.67-5.85,18.57-6,28.37-5.09,4.68.41,6.89-1,7.84-5.23.55-2.42,1.06-4.85,1.57-7.27.41-1.9.32-4.51,3.16-4.11C165.33,113.81,164.8,116.35,165,118.4Z" transform="translate(-102.71 -112.1)"/><path class="cls-1" d="M144.06,167.46c-.25,2.44-1.8,4.41-5.26,4.5-2.64.08-4.37-1.45-4.28-3.79.12-3.38,2.49-5.42,5.83-5.65C143,162.34,144.22,164,144.06,167.46Z" transform="translate(-102.71 -112.1)"/><path class="cls-1" d="M133.72,112.1c2,.15,4.38.4,4.28,3s-2.33,4-4.84,4.05-4.27-1.05-4.45-3.69C128.46,111.63,131.74,112.83,133.72,112.1Z" transform="translate(-102.71 -112.1)"/><path class="cls-2" d="M134.93,143.88c-2.85-.17-8.08-1.17-8.57-4.43-.43-2.85,5.08-3.84,8.41-4.47a40.71,40.71,0,0,1,12.42-.16c1,.12,2.11.12,2.56,1.21s-.45,1.83-1.2,2.45C144.9,141.5,141,143.92,134.93,143.88Z" transform="translate(-102.71 -112.1)"/></svg>