<svg width="30" height="31" viewBox="0 0 30 31" fill="none" xmlns="http://www.w3.org/2000/svg">
<g clip-path="url(#clip0_1_8392)">
<path d="M0.640234 14.938C0.639531 17.4782 1.30328 19.9586 2.56539 22.1449L0.519531 29.6146L8.16391 27.6103C10.2782 28.7613 12.6472 29.3644 15.0545 29.3646H15.0609C23.0079 29.3646 29.477 22.8978 29.4804 14.9493C29.482 11.0977 27.9834 7.47594 25.2606 4.75109C22.5384 2.02648 18.9179 0.525195 15.0603 0.523438C7.11227 0.523438 0.643633 6.98984 0.640352 14.938" fill="url(#paint0_linear_1_8392)"/>
<path d="M0.125391 14.9316C0.12457 17.5632 0.812109 20.1323 2.11922 22.3969L0 30.1344L7.91848 28.0582C10.1003 29.2478 12.5568 29.875 15.0564 29.8759H15.0628C23.295 29.8759 29.9965 23.1765 30 14.9435C30.0014 10.9535 28.4489 7.20152 25.6289 4.37906C22.8086 1.55695 19.0586 0.00164063 15.0628 0C6.82922 0 0.128672 6.69844 0.125391 14.9316ZM4.84102 22.0069L4.54535 21.5375C3.30246 19.5613 2.64645 17.2775 2.64738 14.9325C2.65008 8.08934 8.2193 2.52188 15.0675 2.52188C18.3839 2.52328 21.5006 3.81609 23.8448 6.16172C26.1889 8.50758 27.4788 11.6259 27.478 14.9426C27.475 21.7857 21.9056 27.3539 15.0628 27.3539H15.0579C12.8298 27.3527 10.6446 26.7544 8.73891 25.6236L8.28539 25.3547L3.58641 26.5867L4.84102 22.0068V22.0069Z" fill="url(#paint1_linear_1_8392)"/>
<path d="M11.3293 8.68872C11.0497 8.06728 10.7554 8.05474 10.4895 8.04384C10.2718 8.03446 10.0229 8.03517 9.77422 8.03517C9.52531 8.03517 9.1209 8.1288 8.77906 8.50204C8.43687 8.87564 7.47266 9.77845 7.47266 11.6147C7.47266 13.451 8.81012 15.2256 8.99656 15.4748C9.18324 15.7236 11.5786 19.6124 15.3721 21.1084C18.525 22.3516 19.1666 22.1043 19.8508 22.042C20.5352 21.9799 22.0591 21.1394 22.37 20.2679C22.6811 19.3965 22.6811 18.6495 22.5879 18.4934C22.4946 18.3379 22.2457 18.2445 21.8724 18.058C21.4991 17.8713 19.6641 16.9684 19.3221 16.8438C18.9799 16.7193 18.7311 16.6572 18.4822 17.0309C18.2333 17.4041 17.5186 18.2445 17.3007 18.4934C17.0831 18.7429 16.8652 18.774 16.4921 18.5873C16.1186 18.4001 14.9166 18.0064 13.4906 16.7351C12.3811 15.7458 11.632 14.5241 11.4143 14.1504C11.1965 13.7772 11.3909 13.575 11.5781 13.389C11.7458 13.2218 11.9514 12.9532 12.1382 12.7353C12.3243 12.5174 12.3864 12.3618 12.5109 12.1129C12.6355 11.8638 12.5731 11.6458 12.48 11.4592C12.3864 11.2725 11.6612 9.42665 11.3293 8.68872Z" fill="white"/>
</g>
<defs>
<linearGradient id="paint0_linear_1_8392" x1="1448.56" y1="2909.64" x2="1448.56" y2="0.523438" gradientUnits="userSpaceOnUse">
<stop stop-color="#1FAF38"/>
<stop offset="1" stop-color="#60D669"/>
</linearGradient>
<linearGradient id="paint1_linear_1_8392" x1="1500" y1="3013.44" x2="1500" y2="0" gradientUnits="userSpaceOnUse">
<stop stop-color="#F9F9F9"/>
<stop offset="1" stop-color="white"/>
</linearGradient>
<clipPath id="clip0_1_8392">
<rect width="30" height="30.2344" fill="white"/>
</clipPath>
</defs>
</svg>